<?xml version="1.0" encoding="UTF-8" standalone="no"?>
<!DOCTYPE svg PUBLIC "-//W3C//DTD SVG 1.1//EN" "http://www.w3.org/Graphics/SVG/1.1/DTD/svg11.dtd">
<svg width="100%" height="100%" viewBox="0 0 5089 1704" version="1.1" xmlns="http://www.w3.org/2000/svg" xmlns:xlink="http://www.w3.org/1999/xlink" xml:space="preserve" xmlns:serif="http://www.serif.com/" style="fill-rule:evenodd;clip-rule:evenodd;stroke-linecap:round;stroke-miterlimit:1.5;">
    <g transform="matrix(1,0,0,1,-14303,-4565.07)">
        <g transform="matrix(1.07635,0,0,0.796694,14303,-3401.86)">
            <rect x="0" y="10000" width="4727.15" height="2138.09" style="fill:none;"/>
        </g>
        <g transform="matrix(1,0,-1.20261e-32,1,15738.2,4933.75)">
            <g transform="matrix(581.72,0,0,500,0,350.342)">
                <path d="M0.246,-0.089C0.216,-0.089 0.191,-0.1 0.17,-0.121C0.149,-0.142 0.138,-0.168 0.138,-0.197C0.138,-0.21 0.134,-0.22 0.125,-0.229C0.116,-0.238 0.106,-0.242 0.093,-0.242C0.081,-0.242 0.07,-0.238 0.062,-0.229C0.053,-0.22 0.049,-0.21 0.049,-0.197C0.049,-0.143 0.068,-0.097 0.107,-0.058C0.145,-0.019 0.192,-0 0.246,-0L0.368,-0C0.422,-0 0.469,-0.019 0.507,-0.058C0.546,-0.097 0.565,-0.143 0.565,-0.197C0.565,-0.252 0.546,-0.299 0.507,-0.337C0.469,-0.376 0.422,-0.395 0.368,-0.395L0.246,-0.395C0.216,-0.395 0.191,-0.406 0.17,-0.427C0.149,-0.448 0.138,-0.473 0.138,-0.503C0.138,-0.533 0.149,-0.558 0.17,-0.58C0.191,-0.601 0.216,-0.611 0.246,-0.611L0.368,-0.611C0.398,-0.611 0.423,-0.601 0.444,-0.58C0.465,-0.558 0.476,-0.533 0.476,-0.503C0.476,-0.491 0.48,-0.48 0.489,-0.472C0.498,-0.463 0.508,-0.458 0.521,-0.458C0.533,-0.458 0.543,-0.463 0.552,-0.472C0.561,-0.48 0.565,-0.491 0.565,-0.503C0.565,-0.558 0.546,-0.604 0.507,-0.643C0.469,-0.681 0.422,-0.701 0.368,-0.701L0.246,-0.701C0.192,-0.701 0.145,-0.681 0.107,-0.643C0.068,-0.604 0.049,-0.558 0.049,-0.503C0.049,-0.449 0.068,-0.402 0.107,-0.364C0.145,-0.325 0.192,-0.306 0.246,-0.306L0.368,-0.306C0.398,-0.306 0.423,-0.295 0.444,-0.274C0.465,-0.253 0.476,-0.227 0.476,-0.197C0.476,-0.168 0.465,-0.142 0.444,-0.121C0.423,-0.1 0.398,-0.089 0.368,-0.089L0.246,-0.089Z" style="fill:white;fill-rule:nonzero;"/>
            </g>
            <g transform="matrix(581.72,0,0,500,357.326,350.342)">
                <path d="M0.049,-0.044C0.049,-0.032 0.053,-0.022 0.062,-0.013C0.07,-0.004 0.081,-0 0.093,-0C0.106,-0 0.116,-0.004 0.125,-0.013C0.134,-0.022 0.138,-0.032 0.138,-0.044L0.138,-0.267L0.191,-0.315L0.468,-0.014C0.477,-0.005 0.488,-0 0.501,-0C0.513,-0 0.523,-0.004 0.531,-0.012C0.54,-0.02 0.545,-0.031 0.545,-0.043C0.546,-0.055 0.542,-0.066 0.534,-0.075L0.257,-0.375L0.531,-0.623C0.54,-0.631 0.545,-0.641 0.545,-0.654C0.546,-0.666 0.542,-0.677 0.534,-0.686C0.526,-0.695 0.515,-0.7 0.503,-0.701C0.491,-0.701 0.48,-0.697 0.471,-0.689L0.138,-0.387L0.138,-0.656C0.138,-0.668 0.134,-0.679 0.125,-0.688C0.116,-0.696 0.106,-0.701 0.093,-0.701C0.081,-0.701 0.07,-0.696 0.062,-0.688C0.053,-0.679 0.049,-0.668 0.049,-0.656L0.049,-0.044Z" style="fill:white;fill-rule:nonzero;"/>
            </g>
            <g transform="matrix(581.72,0,0,500,703.574,350.342)">
                <path d="M0.324,-0.027C0.332,-0.009 0.345,-0 0.364,-0C0.384,-0 0.397,-0.009 0.405,-0.027L0.673,-0.638C0.678,-0.65 0.678,-0.661 0.673,-0.672C0.669,-0.684 0.661,-0.692 0.65,-0.697C0.639,-0.702 0.627,-0.702 0.616,-0.698C0.604,-0.693 0.596,-0.685 0.591,-0.674L0.364,-0.156L0.138,-0.674C0.133,-0.685 0.125,-0.693 0.113,-0.698C0.102,-0.702 0.09,-0.702 0.079,-0.697C0.068,-0.692 0.06,-0.684 0.056,-0.672C0.051,-0.661 0.051,-0.65 0.056,-0.638L0.324,-0.027Z" style="fill:white;fill-rule:nonzero;"/>
            </g>
            <g transform="matrix(581.72,0,0,500,1127.65,350.342)">
                <path d="M0.399,-0.611C0.471,-0.611 0.533,-0.586 0.583,-0.535C0.635,-0.484 0.66,-0.422 0.66,-0.35C0.66,-0.278 0.635,-0.217 0.583,-0.166C0.533,-0.115 0.471,-0.089 0.399,-0.089C0.327,-0.089 0.265,-0.115 0.214,-0.166C0.164,-0.217 0.138,-0.278 0.138,-0.35C0.138,-0.422 0.164,-0.484 0.214,-0.535C0.265,-0.586 0.327,-0.611 0.399,-0.611ZM0.399,-0C0.496,-0 0.579,-0.034 0.647,-0.103C0.715,-0.171 0.75,-0.253 0.75,-0.35C0.75,-0.447 0.715,-0.53 0.647,-0.598C0.579,-0.667 0.496,-0.701 0.399,-0.701C0.302,-0.701 0.22,-0.667 0.151,-0.598C0.083,-0.53 0.049,-0.447 0.049,-0.35C0.049,-0.253 0.083,-0.171 0.151,-0.103C0.22,-0.034 0.302,-0 0.399,-0Z" style="fill:white;fill-rule:nonzero;"/>
            </g>
            <g transform="matrix(581.72,0,0,500,1592.06,350.342)">
                <path d="M0.468,-0.472C0.468,-0.434 0.454,-0.401 0.427,-0.374C0.4,-0.347 0.367,-0.333 0.329,-0.333L0.138,-0.333L0.138,-0.611L0.329,-0.611C0.367,-0.611 0.4,-0.598 0.427,-0.571C0.454,-0.543 0.468,-0.511 0.468,-0.472ZM0.093,-0C0.106,-0 0.116,-0.004 0.125,-0.013C0.134,-0.022 0.138,-0.032 0.138,-0.044L0.138,-0.244L0.275,-0.244L0.487,-0.014C0.496,-0.005 0.507,-0 0.52,-0C0.531,-0 0.541,-0.004 0.55,-0.012C0.559,-0.02 0.564,-0.031 0.564,-0.043C0.565,-0.055 0.561,-0.066 0.552,-0.075L0.389,-0.252C0.438,-0.265 0.478,-0.292 0.509,-0.333C0.541,-0.374 0.557,-0.42 0.557,-0.472C0.557,-0.535 0.535,-0.589 0.49,-0.634C0.446,-0.678 0.392,-0.701 0.329,-0.701L0.093,-0.701C0.081,-0.701 0.07,-0.696 0.062,-0.688C0.053,-0.679 0.049,-0.668 0.049,-0.656L0.049,-0.044C0.049,-0.032 0.053,-0.022 0.062,-0.013C0.07,-0.004 0.081,-0 0.093,-0Z" style="fill:white;fill-rule:nonzero;"/>
            </g>
            <g transform="matrix(581.72,0,0,500,1949.1,350.342)">
                <path d="M0.285,-0.611L0.285,-0.044C0.285,-0.032 0.289,-0.022 0.297,-0.013C0.306,-0.004 0.317,-0 0.329,-0C0.341,-0 0.352,-0.004 0.361,-0.013C0.369,-0.022 0.374,-0.032 0.374,-0.044L0.374,-0.611L0.565,-0.611C0.577,-0.611 0.587,-0.616 0.596,-0.625C0.605,-0.633 0.609,-0.644 0.609,-0.656C0.609,-0.668 0.605,-0.679 0.596,-0.688C0.587,-0.696 0.577,-0.701 0.565,-0.701L0.093,-0.701C0.081,-0.701 0.07,-0.696 0.062,-0.688C0.053,-0.679 0.049,-0.668 0.049,-0.656C0.049,-0.644 0.053,-0.633 0.062,-0.625C0.07,-0.616 0.081,-0.611 0.093,-0.611L0.285,-0.611Z" style="fill:white;fill-rule:nonzero;"/>
            </g>
            <g transform="matrix(581.72,0,0,500,2331.99,350.342)">
                <path d="M0.246,-0.089C0.216,-0.089 0.191,-0.1 0.17,-0.121C0.149,-0.142 0.138,-0.168 0.138,-0.197C0.138,-0.21 0.134,-0.22 0.125,-0.229C0.116,-0.238 0.106,-0.242 0.093,-0.242C0.081,-0.242 0.07,-0.238 0.062,-0.229C0.053,-0.22 0.049,-0.21 0.049,-0.197C0.049,-0.143 0.068,-0.097 0.107,-0.058C0.145,-0.019 0.192,-0 0.246,-0L0.368,-0C0.422,-0 0.469,-0.019 0.507,-0.058C0.546,-0.097 0.565,-0.143 0.565,-0.197C0.565,-0.252 0.546,-0.299 0.507,-0.337C0.469,-0.376 0.422,-0.395 0.368,-0.395L0.246,-0.395C0.216,-0.395 0.191,-0.406 0.17,-0.427C0.149,-0.448 0.138,-0.473 0.138,-0.503C0.138,-0.533 0.149,-0.558 0.17,-0.58C0.191,-0.601 0.216,-0.611 0.246,-0.611L0.368,-0.611C0.398,-0.611 0.423,-0.601 0.444,-0.58C0.465,-0.558 0.476,-0.533 0.476,-0.503C0.476,-0.491 0.48,-0.48 0.489,-0.472C0.498,-0.463 0.508,-0.458 0.521,-0.458C0.533,-0.458 0.543,-0.463 0.552,-0.472C0.561,-0.48 0.565,-0.491 0.565,-0.503C0.565,-0.558 0.546,-0.604 0.507,-0.643C0.469,-0.681 0.422,-0.701 0.368,-0.701L0.246,-0.701C0.192,-0.701 0.145,-0.681 0.107,-0.643C0.068,-0.604 0.049,-0.558 0.049,-0.503C0.049,-0.449 0.068,-0.402 0.107,-0.364C0.145,-0.325 0.192,-0.306 0.246,-0.306L0.368,-0.306C0.398,-0.306 0.423,-0.295 0.444,-0.274C0.465,-0.253 0.476,-0.227 0.476,-0.197C0.476,-0.168 0.465,-0.142 0.444,-0.121C0.423,-0.1 0.398,-0.089 0.368,-0.089L0.246,-0.089Z" style="fill:white;fill-rule:nonzero;"/>
            </g>
            <g transform="matrix(581.72,0,0,500,2689.32,350.342)">
                <path d="M0.399,-0.611C0.471,-0.611 0.533,-0.586 0.583,-0.535C0.635,-0.484 0.66,-0.422 0.66,-0.35C0.66,-0.278 0.635,-0.217 0.583,-0.166C0.533,-0.115 0.471,-0.089 0.399,-0.089C0.327,-0.089 0.265,-0.115 0.214,-0.166C0.164,-0.217 0.138,-0.278 0.138,-0.35C0.138,-0.422 0.164,-0.484 0.214,-0.535C0.265,-0.586 0.327,-0.611 0.399,-0.611ZM0.399,-0C0.496,-0 0.579,-0.034 0.647,-0.103C0.715,-0.171 0.75,-0.253 0.75,-0.35C0.75,-0.447 0.715,-0.53 0.647,-0.598C0.579,-0.667 0.496,-0.701 0.399,-0.701C0.302,-0.701 0.22,-0.667 0.151,-0.598C0.083,-0.53 0.049,-0.447 0.049,-0.35C0.049,-0.253 0.083,-0.171 0.151,-0.103C0.22,-0.034 0.302,-0 0.399,-0Z" style="fill:white;fill-rule:nonzero;"/>
            </g>
            <g transform="matrix(581.72,0,0,500,3153.73,350.342)">
                <path d="M0.324,-0.027C0.332,-0.009 0.345,-0 0.364,-0C0.384,-0 0.397,-0.009 0.405,-0.027L0.673,-0.638C0.678,-0.65 0.678,-0.661 0.673,-0.672C0.669,-0.684 0.661,-0.692 0.65,-0.697C0.639,-0.702 0.627,-0.702 0.616,-0.698C0.604,-0.693 0.596,-0.685 0.591,-0.674L0.364,-0.156L0.138,-0.674C0.133,-0.685 0.125,-0.693 0.113,-0.698C0.102,-0.702 0.09,-0.702 0.079,-0.697C0.068,-0.692 0.06,-0.684 0.056,-0.672C0.051,-0.661 0.051,-0.65 0.056,-0.638L0.324,-0.027Z" style="fill:white;fill-rule:nonzero;"/>
            </g>
            <g transform="matrix(581.72,0,0,500,0,942.871)">
                <path d="M0.325,-0.645C0.371,-0.645 0.41,-0.628 0.443,-0.596C0.476,-0.563 0.492,-0.524 0.492,-0.478C0.492,-0.432 0.476,-0.392 0.443,-0.359C0.41,-0.327 0.371,-0.311 0.325,-0.311L0.076,-0.311C0.068,-0.311 0.062,-0.308 0.057,-0.303C0.051,-0.298 0.049,-0.291 0.049,-0.284L0.049,-0.027C0.049,-0.019 0.051,-0.013 0.057,-0.008C0.062,-0.003 0.068,-0 0.076,-0C0.083,-0 0.09,-0.003 0.095,-0.008C0.1,-0.013 0.103,-0.019 0.103,-0.027L0.103,-0.257L0.325,-0.257C0.386,-0.257 0.438,-0.278 0.481,-0.322C0.524,-0.365 0.546,-0.417 0.546,-0.478C0.546,-0.538 0.524,-0.59 0.481,-0.634C0.438,-0.677 0.386,-0.698 0.325,-0.698L0.076,-0.698C0.068,-0.698 0.062,-0.696 0.057,-0.69C0.051,-0.685 0.049,-0.679 0.049,-0.671C0.049,-0.664 0.051,-0.658 0.057,-0.652C0.062,-0.647 0.068,-0.645 0.076,-0.645L0.325,-0.645Z" style="fill:white;fill-rule:nonzero;"/>
            </g>
            <g transform="matrix(581.72,0,0,500,345.964,942.871)">
                <path d="M0.076,-0C0.083,-0 0.09,-0.003 0.095,-0.008C0.1,-0.013 0.103,-0.019 0.103,-0.027L0.103,-0.322L0.519,-0.322L0.519,-0.027C0.519,-0.019 0.522,-0.013 0.527,-0.008C0.532,-0.003 0.538,-0 0.546,-0C0.553,-0 0.559,-0.003 0.565,-0.008C0.57,-0.013 0.573,-0.019 0.573,-0.027L0.573,-0.671C0.573,-0.679 0.57,-0.685 0.565,-0.69C0.559,-0.696 0.553,-0.698 0.546,-0.698C0.538,-0.698 0.532,-0.696 0.527,-0.69C0.522,-0.685 0.519,-0.679 0.519,-0.671L0.519,-0.376L0.103,-0.376L0.103,-0.671C0.103,-0.679 0.1,-0.685 0.095,-0.69C0.09,-0.696 0.083,-0.698 0.076,-0.698C0.068,-0.698 0.062,-0.696 0.057,-0.69C0.051,-0.685 0.049,-0.679 0.049,-0.671L0.049,-0.027C0.049,-0.019 0.051,-0.013 0.057,-0.008C0.062,-0.003 0.068,-0 0.076,-0Z" style="fill:white;fill-rule:nonzero;"/>
            </g>
            <g transform="matrix(581.72,0,0,500,707.551,942.871)">
                <path d="M0.664,-0.012C0.67,-0.02 0.67,-0.029 0.667,-0.038L0.384,-0.682C0.38,-0.693 0.372,-0.698 0.36,-0.698C0.348,-0.698 0.34,-0.693 0.335,-0.682L0.053,-0.038C0.05,-0.031 0.05,-0.024 0.053,-0.017C0.055,-0.01 0.06,-0.005 0.067,-0.002C0.07,-0.001 0.074,-0 0.078,-0C0.089,-0 0.098,-0.005 0.103,-0.016L0.36,-0.604L0.601,-0.054L0.292,-0.054C0.285,-0.054 0.279,-0.051 0.273,-0.046C0.268,-0.041 0.266,-0.034 0.266,-0.027C0.266,-0.019 0.268,-0.013 0.273,-0.008C0.279,-0.003 0.285,-0 0.292,-0L0.642,-0C0.651,-0 0.659,-0.004 0.664,-0.012Z" style="fill:white;fill-rule:nonzero;"/>
            </g>
            <g transform="matrix(581.72,0,0,500,1092.9,942.871)">
                <path d="M0.398,-0C0.494,-0 0.577,-0.034 0.645,-0.102C0.65,-0.108 0.653,-0.114 0.653,-0.121L0.653,-0.349C0.653,-0.357 0.65,-0.363 0.645,-0.368C0.64,-0.373 0.633,-0.376 0.626,-0.376L0.385,-0.376C0.377,-0.376 0.371,-0.373 0.366,-0.368C0.361,-0.363 0.358,-0.357 0.358,-0.349C0.358,-0.342 0.361,-0.335 0.366,-0.33C0.371,-0.325 0.377,-0.322 0.385,-0.322L0.599,-0.322L0.599,-0.133C0.542,-0.08 0.475,-0.054 0.398,-0.054C0.316,-0.054 0.247,-0.083 0.189,-0.14C0.131,-0.198 0.103,-0.267 0.103,-0.349C0.103,-0.431 0.131,-0.5 0.189,-0.558C0.247,-0.616 0.316,-0.645 0.398,-0.645C0.48,-0.645 0.549,-0.616 0.607,-0.558C0.612,-0.553 0.618,-0.55 0.626,-0.55C0.633,-0.55 0.64,-0.553 0.645,-0.558C0.65,-0.563 0.653,-0.57 0.653,-0.577C0.653,-0.585 0.65,-0.591 0.645,-0.596C0.577,-0.664 0.494,-0.698 0.398,-0.698C0.302,-0.698 0.219,-0.664 0.151,-0.596C0.083,-0.528 0.049,-0.445 0.049,-0.349C0.049,-0.253 0.083,-0.17 0.151,-0.102C0.219,-0.034 0.302,-0 0.398,-0Z" style="fill:white;fill-rule:nonzero;"/>
            </g>
            <g transform="matrix(581.72,0,0,500,1501.07,942.871)">
                <path d="M0.546,-0.027C0.546,-0.034 0.543,-0.041 0.538,-0.046C0.533,-0.051 0.526,-0.054 0.519,-0.054L0.076,-0.054C0.068,-0.054 0.062,-0.051 0.057,-0.046C0.051,-0.041 0.049,-0.034 0.049,-0.027C0.049,-0.019 0.051,-0.013 0.057,-0.008C0.062,-0.003 0.068,-0 0.076,-0L0.519,-0C0.526,-0 0.533,-0.003 0.538,-0.008C0.543,-0.013 0.546,-0.019 0.546,-0.027ZM0.076,-0.698C0.068,-0.698 0.062,-0.696 0.057,-0.69C0.051,-0.685 0.049,-0.679 0.049,-0.671C0.049,-0.664 0.051,-0.658 0.057,-0.652C0.062,-0.647 0.068,-0.645 0.076,-0.645L0.519,-0.645C0.526,-0.645 0.533,-0.647 0.538,-0.652C0.543,-0.658 0.546,-0.664 0.546,-0.671C0.546,-0.679 0.543,-0.685 0.538,-0.69C0.533,-0.696 0.526,-0.698 0.519,-0.698L0.076,-0.698ZM0.076,-0.376C0.068,-0.376 0.062,-0.373 0.057,-0.368C0.051,-0.363 0.049,-0.357 0.049,-0.349C0.049,-0.342 0.051,-0.335 0.057,-0.33C0.062,-0.325 0.068,-0.322 0.076,-0.322L0.519,-0.322C0.526,-0.322 0.533,-0.325 0.538,-0.33C0.543,-0.335 0.546,-0.342 0.546,-0.349C0.546,-0.357 0.543,-0.363 0.538,-0.368C0.533,-0.373 0.526,-0.376 0.519,-0.376L0.076,-0.376Z" style="fill:white;fill-rule:nonzero;"/>
            </g>
            <g transform="matrix(581.72,0,0,500,1991.33,942.871)">
                <path d="M0.532,-0C0.54,-0 0.546,-0.003 0.551,-0.008C0.556,-0.013 0.559,-0.019 0.559,-0.027C0.559,-0.034 0.556,-0.041 0.551,-0.046C0.546,-0.051 0.54,-0.054 0.532,-0.054L0.103,-0.054L0.103,-0.671C0.103,-0.679 0.1,-0.685 0.095,-0.69C0.09,-0.696 0.083,-0.698 0.076,-0.698C0.068,-0.698 0.062,-0.696 0.057,-0.69C0.051,-0.685 0.049,-0.679 0.049,-0.671L0.049,-0.027C0.049,-0.019 0.051,-0.013 0.057,-0.008C0.062,-0.003 0.068,-0 0.076,-0L0.532,-0Z" style="fill:white;fill-rule:nonzero;"/>
            </g>
            <g transform="matrix(581.72,0,0,500,2344.96,942.871)">
                <path d="M0.213,-0.269L0.36,-0.604L0.507,-0.269L0.213,-0.269ZM0.384,-0.682C0.38,-0.693 0.372,-0.698 0.36,-0.698C0.348,-0.698 0.34,-0.693 0.335,-0.682L0.053,-0.038C0.05,-0.031 0.05,-0.024 0.053,-0.017C0.055,-0.01 0.06,-0.005 0.067,-0.002C0.07,-0.001 0.074,-0 0.078,-0C0.089,-0 0.098,-0.005 0.103,-0.016L0.19,-0.216C0.193,-0.215 0.196,-0.215 0.199,-0.215L0.521,-0.215C0.524,-0.215 0.527,-0.215 0.53,-0.216L0.617,-0.016C0.62,-0.009 0.625,-0.005 0.632,-0.002C0.639,0.001 0.646,0 0.652,-0.002C0.659,-0.005 0.664,-0.01 0.667,-0.017C0.67,-0.024 0.669,-0.031 0.667,-0.038L0.384,-0.682Z" style="fill:white;fill-rule:nonzero;"/>
            </g>
            <g transform="matrix(581.72,0,0,500,2763.64,942.871)">
                <path d="M0.103,-0.322L0.385,-0.322C0.422,-0.322 0.453,-0.309 0.479,-0.283C0.506,-0.257 0.519,-0.225 0.519,-0.188C0.519,-0.151 0.506,-0.119 0.479,-0.093C0.453,-0.067 0.422,-0.054 0.385,-0.054L0.103,-0.054L0.103,-0.322ZM0.103,-0.645L0.331,-0.645C0.368,-0.645 0.399,-0.632 0.426,-0.605C0.452,-0.579 0.465,-0.547 0.465,-0.51C0.465,-0.473 0.452,-0.442 0.426,-0.416C0.399,-0.389 0.368,-0.376 0.331,-0.376L0.103,-0.376L0.103,-0.645ZM0.385,-0C0.437,-0 0.481,-0.018 0.518,-0.055C0.554,-0.092 0.573,-0.136 0.573,-0.188C0.573,-0.228 0.561,-0.264 0.538,-0.297C0.515,-0.328 0.486,-0.351 0.449,-0.364C0.496,-0.402 0.519,-0.451 0.519,-0.51C0.519,-0.562 0.501,-0.606 0.464,-0.643C0.427,-0.68 0.383,-0.698 0.331,-0.698L0.076,-0.698C0.068,-0.698 0.062,-0.696 0.057,-0.69C0.051,-0.685 0.049,-0.679 0.049,-0.671L0.049,-0.027C0.049,-0.019 0.051,-0.013 0.057,-0.008C0.062,-0.003 0.068,-0 0.076,-0L0.385,-0Z" style="fill:white;fill-rule:nonzero;"/>
            </g>
        </g>
        <g transform="matrix(1,0,0,1,10549.6,-11353.2)">
            <path d="M5005.27,16444.8C5005.27,16328.7 4911.01,16234.4 4794.92,16234.4L4148.49,16234.4C4032.39,16234.4 3938.14,16328.7 3938.14,16444.8L3938.14,17091.2C3938.14,17207.3 4032.39,17301.6 4148.49,17301.6L4794.92,17301.6C4911.01,17301.6 5005.27,17207.3 5005.27,17091.2L5005.27,16444.8Z" style="fill:white;"/>
        </g>
        <g transform="matrix(5.98245e-17,-0.977007,0.977007,5.98245e-17,14573.4,5878.07)">
            <g>
                <g transform="matrix(1.12944,0.664846,-0.457742,0.777612,-1131.93,-1254.14)">
                    <path d="M1715.34,200.826C1727.47,190.443 1742.53,190.443 1754.66,200.826C1811.07,249.088 1972.9,387.56 2028.56,435.189C2040.38,445.303 2047.63,463.744 2047.63,483.67C2047.63,578.958 2047.63,859.089 2047.63,954.377C2047.63,974.304 2040.38,992.744 2028.56,1002.86C1972.9,1050.49 1811.07,1188.96 1754.66,1237.22C1742.53,1247.61 1727.47,1247.61 1715.34,1237.22C1658.93,1188.96 1497.1,1050.49 1441.44,1002.86C1429.62,992.744 1422.37,974.304 1422.37,954.377C1422.37,859.089 1422.37,578.958 1422.37,483.67C1422.37,463.744 1429.62,445.303 1441.44,435.189C1497.1,387.56 1658.93,249.088 1715.34,200.826Z" style="fill:rgb(42,50,120);stroke:rgb(42,50,120);stroke-width:3.6px;"/>
                </g>
                <g transform="matrix(0.780189,0.509383,-0.456393,0.86047,281.479,-241.825)">
                    <path d="M584.462,-4.364L275.903,354.224" style="fill:none;"/>
                    <path d="M582.471,-5.872C583.444,-7.003 585.127,-7.246 586.225,-6.414C587.324,-5.582 587.426,-3.988 586.453,-2.857C586.453,-2.857 569.07,16.761 543.232,47.328C537.532,54.071 531.531,61.422 525.126,69.152C458.557,149.504 355.362,275.329 308.225,331.32C293.051,349.346 283.61,360.059 283.61,360.059C279.842,364.438 273.33,365.378 269.077,362.157C264.824,358.936 264.429,352.767 268.197,348.388C268.197,348.388 277.369,337.471 292.95,319.753C341.35,264.719 450.69,143.548 520.374,65.554C527.079,58.05 533.472,50.997 539.296,44.348C565.696,14.206 582.471,-5.872 582.471,-5.872Z" style="fill:rgb(42,50,120);"/>
                </g>
                <g transform="matrix(0.780189,0.509383,-0.456393,0.86047,281.479,-241.825)">
                    <path d="M117.425,745.519L275.903,354.224" style="fill:none;"/>
                    <path d="M119.894,746.245C119.349,747.591 117.8,748.358 116.437,747.957C115.074,747.556 114.41,746.138 114.955,744.792C114.955,744.792 124.104,723.244 137.171,690.019C140.053,682.689 142.993,674.76 146.173,666.392C179.234,579.426 229.999,443.551 253.751,382.739C261.397,363.164 266.344,351.411 266.344,351.411C268.454,346.202 274.45,343.233 279.726,344.786C285.002,346.338 287.572,351.828 285.462,357.037C285.462,357.037 280.85,368.888 272.699,388.315C247.379,448.665 188.991,582.298 152.067,668.127C148.515,676.385 145.089,684.171 142.053,691.456C128.29,724.476 119.894,746.245 119.894,746.245Z" style="fill:rgb(42,50,120);"/>
                </g>
                <g transform="matrix(0.780189,0.509383,-0.456393,0.86047,281.479,-241.825)">
                    <path d="M536.625,968.81L533.411,794.424" style="fill:none;"/>
                    <path d="M539.284,968.535C539.31,969.931 538.14,971.188 536.672,971.339C535.204,971.491 533.992,970.481 533.966,969.085C533.966,969.085 534.193,959.387 533.547,944.668C533.404,941.414 533.078,937.948 532.809,934.261C530.016,895.925 524.81,836.394 523.466,809.43C523.034,800.77 523.117,795.489 523.117,795.489C523.018,790.085 527.549,785.221 533.23,784.634C538.911,784.046 543.605,787.957 543.704,793.36C543.704,793.36 543.981,798.604 543.87,807.321C543.523,834.459 540.528,894.838 539.156,933.605C539.024,937.334 538.827,940.853 538.804,944.124C538.701,958.921 539.284,968.535 539.284,968.535Z" style="fill:rgb(42,50,120);"/>
                </g>
                <g transform="matrix(0.780189,0.509383,-0.456393,0.86047,281.479,-241.825)">
                    <path d="M139.385,258.134L275.903,354.224" style="fill:none;"/>
                    <path d="M137.687,260.231C136.557,259.436 136.401,257.851 137.339,256.694C138.276,255.536 139.954,255.242 141.084,256.037C141.084,256.037 148.384,261.678 160.177,269.514C162.784,271.246 165.685,272.964 168.716,274.85C200.23,294.452 249.777,324.25 271.498,338.491C278.472,343.064 282.477,346.106 282.477,346.106C286.85,349.184 287.454,355.32 283.826,359.8C280.197,364.28 273.702,365.419 269.329,362.341C269.329,362.341 265.094,359.583 258.466,354.582C237.826,339.007 193.515,302.742 164.662,279.855C161.887,277.653 159.321,275.523 156.819,273.66C145.505,265.233 137.687,260.231 137.687,260.231Z" style="fill:rgb(42,50,120);"/>
                </g>
                <g transform="matrix(0.780189,0.509383,-0.456393,0.86047,281.479,-241.825)">
                    <path d="M117.993,746.491L533.411,794.424" style="fill:none;"/>
                    <path d="M117.442,749.017C116.006,748.852 115.087,747.585 115.392,746.191C115.696,744.796 117.109,743.799 118.545,743.965C118.545,743.965 141.455,747.003 176.697,750.704C184.473,751.521 192.869,752.235 201.736,753.063C293.892,761.67 437.804,774.278 502.295,780.897C523.055,783.028 535.547,784.645 535.547,784.645C541.105,785.286 544.661,790.189 543.482,795.587C542.303,800.984 536.833,804.845 531.275,804.204C531.275,804.204 518.708,802.929 498.061,800.282C433.92,792.059 291.711,771.653 200.418,759.093C191.635,757.884 183.347,756.673 175.606,755.699C140.52,751.285 117.442,749.017 117.442,749.017Z" style="fill:rgb(42,50,120);"/>
                </g>
                <g transform="matrix(0.780189,0.509383,-0.456393,0.86047,281.479,-241.825)">
                    <path d="M981.817,705.42L533.411,794.424" style="fill:none;"/>
                    <path d="M981.507,702.93C982.965,702.641 984.287,703.521 984.458,704.895C984.629,706.269 983.585,707.62 982.127,707.909C982.127,707.909 957.26,712.456 919.346,720.341C910.982,722.081 902.008,724.114 892.506,726.192C793.743,747.791 639.793,782.286 570.472,796.855C548.156,801.546 534.611,804.061 534.611,804.061C528.968,805.182 523.848,801.773 523.186,796.454C522.524,791.135 526.568,785.908 532.211,784.788C532.211,784.788 545.714,781.934 568.094,777.753C637.612,764.764 792.518,737.954 891.766,720.249C901.314,718.546 910.35,717.004 918.734,715.419C956.734,708.236 981.507,702.93 981.507,702.93Z" style="fill:rgb(42,50,120);"/>
                </g>
                <g transform="matrix(0.574029,0.490744,-0.361927,0.86901,896.848,137.737)">
                    <path d="M261.156,221.622L93.13,316.509" style="fill:none;"/>
                    <path d="M259.835,219.528L262.476,223.716C262.476,223.716 252.968,228.653 238.937,236.976C235.83,238.82 232.602,240.922 229.126,243.099C192.977,265.739 137.325,301.542 111.638,316.952C103.404,321.892 98.241,324.615 98.241,324.615L88.019,308.402C88.019,308.402 93.003,305.396 101.507,300.884C128.035,286.807 187.755,257.457 225.975,238.1C229.65,236.239 233.138,234.549 236.327,232.836C250.73,225.103 259.835,219.528 259.835,219.528Z" style="fill:rgb(42,50,120);"/>
                </g>
                <g transform="matrix(0.782982,0.520769,-0.45341,0.872632,279.857,-248.436)">
                    <path d="M585.405,-4.405L870.332,283.856" style="fill:none;"/>
                    <path d="M583.396,-2.57C582.451,-3.527 582.583,-5.126 583.691,-6.138C584.8,-7.151 586.467,-7.197 587.413,-6.24C587.413,-6.24 602.878,9.995 627.28,34.137C632.663,39.464 638.583,45.072 644.787,51.057C709.268,113.269 810.494,209.71 855.243,253.755C869.648,267.934 878.106,276.753 878.106,276.753C881.766,280.456 881.254,286.645 876.963,290.565C872.673,294.486 866.218,294.663 862.558,290.96C862.558,290.96 853.828,282.39 839.833,267.836C796.359,222.626 701.333,120.52 639.993,55.437C634.092,49.176 628.568,43.206 623.309,37.765C599.474,13.106 583.396,-2.57 583.396,-2.57Z" style="fill:rgb(42,50,120);"/>
                </g>
                <g transform="matrix(0.782713,0.499672,-0.448333,0.82946,273.329,-210.467)">
                    <path d="M982.792,703.477L874.682,279.581" style="fill:none;"/>
                    <path d="M985.38,702.667C985.731,704.044 984.857,705.526 983.429,705.973C982.001,706.42 980.556,705.665 980.205,704.287C980.205,704.287 974.616,680.701 965.099,644.933C963,637.042 960.574,628.609 958.082,619.665C932.188,526.705 890.962,381.969 873.404,316.601C867.752,295.558 864.666,282.718 864.666,282.718C863.306,277.385 866.69,271.65 872.218,269.919C877.746,268.188 883.338,271.112 884.698,276.445C884.698,276.445 888.134,289.175 893.258,310.384C909.173,376.266 942.412,523.504 964.258,617.731C966.36,626.797 968.276,635.389 970.215,643.331C979.001,679.327 985.38,702.667 985.38,702.667Z" style="fill:rgb(42,50,120);"/>
                </g>
                <g transform="matrix(7.21665e-17,1.18963,-1.2184,-8.21946e-16,1285.4,-141.903)">
                    <path d="M504.69,371.63L719.021,779.982L290.358,779.982L504.69,371.63Z" style="fill:rgb(42,50,120);stroke:rgb(42,50,120);stroke-width:11.33px;stroke-linejoin:round;"/>
                </g>
                <g transform="matrix(7.20077e-17,1.17598,-1.59639,9.77507e-17,10455.3,-6336.57)">
                    <rect x="5700.77" y="6499.37" width="158.55" height="95.693" style="fill:rgb(42,50,120);stroke:rgb(42,50,120);stroke-width:4.17px;stroke-linejoin:round;"/>
                </g>
            </g>
        </g>
        <g transform="matrix(1,0,0,3.62058,-2165.15,-52814.6)">
            <path d="M17398.6,16131C17404.7,16128.8 17405.5,16126.4 17400.9,16124L17214.7,16022.7C17209.3,16019.7 17199.8,16018.2 17186.2,16018.2C17172.8,16018.2 17163.4,16019.7 17157.9,16022.7L16971.7,16124C16968.3,16125.9 16968.2,16127.8 16971.4,16129.7C16974.3,16131.6 16979.8,16132.9 16987.7,16133.7C16991.8,16134.1 16996,16134.4 17000.3,16134.4C17013.6,16134.4 17023,16132.9 17028.5,16129.9L17186.2,16044.1L17325.2,16119.6L17142,16119.6C17133.4,16119.6 17126,16120.3 17119.9,16121.7C17114,16123.2 17111,16125 17111,16127C17111,16129 17114,16130.7 17119.9,16132.2C17126,16133.6 17133.4,16134.4 17142,16134.4L17372.4,16134.4C17383.7,16134.4 17392.4,16133.3 17398.6,16131Z" style="fill:white;fill-rule:nonzero;"/>
        </g>
    </g>
</svg>
