<?xml version="1.0" encoding="UTF-8" standalone="no"?>
<!DOCTYPE svg PUBLIC "-//W3C//DTD SVG 1.1//EN" "http://www.w3.org/Graphics/SVG/1.1/DTD/svg11.dtd">
<svg width="100%" height="100%" viewBox="0 0 5089 1704" version="1.1" xmlns="http://www.w3.org/2000/svg" xmlns:xlink="http://www.w3.org/1999/xlink" xml:space="preserve" xmlns:serif="http://www.serif.com/" style="fill-rule:evenodd;clip-rule:evenodd;stroke-linecap:round;stroke-miterlimit:1.5;">
    <g transform="matrix(1,0,0,1,-2151,-6534.58)">
        <g transform="matrix(1.07635,0,0,0.796694,2151,-1432.36)">
            <rect x="0" y="10000" width="4727.15" height="2138.09" style="fill:none;"/>
        </g>
        <g transform="matrix(1,0,-1.20261e-32,1,3586.21,6903.25)">
            <g transform="matrix(581.72,0,0,500,0,350.342)">
                <path d="M0.246,-0.089C0.216,-0.089 0.191,-0.1 0.17,-0.121C0.149,-0.142 0.138,-0.168 0.138,-0.197C0.138,-0.21 0.134,-0.22 0.125,-0.229C0.116,-0.238 0.106,-0.242 0.093,-0.242C0.081,-0.242 0.07,-0.238 0.062,-0.229C0.053,-0.22 0.049,-0.21 0.049,-0.197C0.049,-0.143 0.068,-0.097 0.107,-0.058C0.145,-0.019 0.192,-0 0.246,-0L0.368,-0C0.422,-0 0.469,-0.019 0.507,-0.058C0.546,-0.097 0.565,-0.143 0.565,-0.197C0.565,-0.252 0.546,-0.299 0.507,-0.337C0.469,-0.376 0.422,-0.395 0.368,-0.395L0.246,-0.395C0.216,-0.395 0.191,-0.406 0.17,-0.427C0.149,-0.448 0.138,-0.473 0.138,-0.503C0.138,-0.533 0.149,-0.558 0.17,-0.58C0.191,-0.601 0.216,-0.611 0.246,-0.611L0.368,-0.611C0.398,-0.611 0.423,-0.601 0.444,-0.58C0.465,-0.558 0.476,-0.533 0.476,-0.503C0.476,-0.491 0.48,-0.48 0.489,-0.472C0.498,-0.463 0.508,-0.458 0.521,-0.458C0.533,-0.458 0.543,-0.463 0.552,-0.472C0.561,-0.48 0.565,-0.491 0.565,-0.503C0.565,-0.558 0.546,-0.604 0.507,-0.643C0.469,-0.681 0.422,-0.701 0.368,-0.701L0.246,-0.701C0.192,-0.701 0.145,-0.681 0.107,-0.643C0.068,-0.604 0.049,-0.558 0.049,-0.503C0.049,-0.449 0.068,-0.402 0.107,-0.364C0.145,-0.325 0.192,-0.306 0.246,-0.306L0.368,-0.306C0.398,-0.306 0.423,-0.295 0.444,-0.274C0.465,-0.253 0.476,-0.227 0.476,-0.197C0.476,-0.168 0.465,-0.142 0.444,-0.121C0.423,-0.1 0.398,-0.089 0.368,-0.089L0.246,-0.089Z" style="fill:white;fill-rule:nonzero;"/>
            </g>
            <g transform="matrix(581.72,0,0,500,357.326,350.342)">
                <path d="M0.049,-0.044C0.049,-0.032 0.053,-0.022 0.062,-0.013C0.07,-0.004 0.081,-0 0.093,-0C0.106,-0 0.116,-0.004 0.125,-0.013C0.134,-0.022 0.138,-0.032 0.138,-0.044L0.138,-0.267L0.191,-0.315L0.468,-0.014C0.477,-0.005 0.488,-0 0.501,-0C0.513,-0 0.523,-0.004 0.531,-0.012C0.54,-0.02 0.545,-0.031 0.545,-0.043C0.546,-0.055 0.542,-0.066 0.534,-0.075L0.257,-0.375L0.531,-0.623C0.54,-0.631 0.545,-0.641 0.545,-0.654C0.546,-0.666 0.542,-0.677 0.534,-0.686C0.526,-0.695 0.515,-0.7 0.503,-0.701C0.491,-0.701 0.48,-0.697 0.471,-0.689L0.138,-0.387L0.138,-0.656C0.138,-0.668 0.134,-0.679 0.125,-0.688C0.116,-0.696 0.106,-0.701 0.093,-0.701C0.081,-0.701 0.07,-0.696 0.062,-0.688C0.053,-0.679 0.049,-0.668 0.049,-0.656L0.049,-0.044Z" style="fill:white;fill-rule:nonzero;"/>
            </g>
            <g transform="matrix(581.72,0,0,500,703.574,350.342)">
                <path d="M0.324,-0.027C0.332,-0.009 0.345,-0 0.364,-0C0.384,-0 0.397,-0.009 0.405,-0.027L0.673,-0.638C0.678,-0.65 0.678,-0.661 0.673,-0.672C0.669,-0.684 0.661,-0.692 0.65,-0.697C0.639,-0.702 0.627,-0.702 0.616,-0.698C0.604,-0.693 0.596,-0.685 0.591,-0.674L0.364,-0.156L0.138,-0.674C0.133,-0.685 0.125,-0.693 0.113,-0.698C0.102,-0.702 0.09,-0.702 0.079,-0.697C0.068,-0.692 0.06,-0.684 0.056,-0.672C0.051,-0.661 0.051,-0.65 0.056,-0.638L0.324,-0.027Z" style="fill:white;fill-rule:nonzero;"/>
            </g>
            <g transform="matrix(581.72,0,0,500,1127.65,350.342)">
                <path d="M0.399,-0.611C0.471,-0.611 0.533,-0.586 0.583,-0.535C0.635,-0.484 0.66,-0.422 0.66,-0.35C0.66,-0.278 0.635,-0.217 0.583,-0.166C0.533,-0.115 0.471,-0.089 0.399,-0.089C0.327,-0.089 0.265,-0.115 0.214,-0.166C0.164,-0.217 0.138,-0.278 0.138,-0.35C0.138,-0.422 0.164,-0.484 0.214,-0.535C0.265,-0.586 0.327,-0.611 0.399,-0.611ZM0.399,-0C0.496,-0 0.579,-0.034 0.647,-0.103C0.715,-0.171 0.75,-0.253 0.75,-0.35C0.75,-0.447 0.715,-0.53 0.647,-0.598C0.579,-0.667 0.496,-0.701 0.399,-0.701C0.302,-0.701 0.22,-0.667 0.151,-0.598C0.083,-0.53 0.049,-0.447 0.049,-0.35C0.049,-0.253 0.083,-0.171 0.151,-0.103C0.22,-0.034 0.302,-0 0.399,-0Z" style="fill:white;fill-rule:nonzero;"/>
            </g>
            <g transform="matrix(581.72,0,0,500,1592.06,350.342)">
                <path d="M0.468,-0.472C0.468,-0.434 0.454,-0.401 0.427,-0.374C0.4,-0.347 0.367,-0.333 0.329,-0.333L0.138,-0.333L0.138,-0.611L0.329,-0.611C0.367,-0.611 0.4,-0.598 0.427,-0.571C0.454,-0.543 0.468,-0.511 0.468,-0.472ZM0.093,-0C0.106,-0 0.116,-0.004 0.125,-0.013C0.134,-0.022 0.138,-0.032 0.138,-0.044L0.138,-0.244L0.275,-0.244L0.487,-0.014C0.496,-0.005 0.507,-0 0.52,-0C0.531,-0 0.541,-0.004 0.55,-0.012C0.559,-0.02 0.564,-0.031 0.564,-0.043C0.565,-0.055 0.561,-0.066 0.552,-0.075L0.389,-0.252C0.438,-0.265 0.478,-0.292 0.509,-0.333C0.541,-0.374 0.557,-0.42 0.557,-0.472C0.557,-0.535 0.535,-0.589 0.49,-0.634C0.446,-0.678 0.392,-0.701 0.329,-0.701L0.093,-0.701C0.081,-0.701 0.07,-0.696 0.062,-0.688C0.053,-0.679 0.049,-0.668 0.049,-0.656L0.049,-0.044C0.049,-0.032 0.053,-0.022 0.062,-0.013C0.07,-0.004 0.081,-0 0.093,-0Z" style="fill:white;fill-rule:nonzero;"/>
            </g>
            <g transform="matrix(581.72,0,0,500,1949.1,350.342)">
                <path d="M0.285,-0.611L0.285,-0.044C0.285,-0.032 0.289,-0.022 0.297,-0.013C0.306,-0.004 0.317,-0 0.329,-0C0.341,-0 0.352,-0.004 0.361,-0.013C0.369,-0.022 0.374,-0.032 0.374,-0.044L0.374,-0.611L0.565,-0.611C0.577,-0.611 0.587,-0.616 0.596,-0.625C0.605,-0.633 0.609,-0.644 0.609,-0.656C0.609,-0.668 0.605,-0.679 0.596,-0.688C0.587,-0.696 0.577,-0.701 0.565,-0.701L0.093,-0.701C0.081,-0.701 0.07,-0.696 0.062,-0.688C0.053,-0.679 0.049,-0.668 0.049,-0.656C0.049,-0.644 0.053,-0.633 0.062,-0.625C0.07,-0.616 0.081,-0.611 0.093,-0.611L0.285,-0.611Z" style="fill:white;fill-rule:nonzero;"/>
            </g>
            <g transform="matrix(581.72,0,0,500,2331.99,350.342)">
                <path d="M0.246,-0.089C0.216,-0.089 0.191,-0.1 0.17,-0.121C0.149,-0.142 0.138,-0.168 0.138,-0.197C0.138,-0.21 0.134,-0.22 0.125,-0.229C0.116,-0.238 0.106,-0.242 0.093,-0.242C0.081,-0.242 0.07,-0.238 0.062,-0.229C0.053,-0.22 0.049,-0.21 0.049,-0.197C0.049,-0.143 0.068,-0.097 0.107,-0.058C0.145,-0.019 0.192,-0 0.246,-0L0.368,-0C0.422,-0 0.469,-0.019 0.507,-0.058C0.546,-0.097 0.565,-0.143 0.565,-0.197C0.565,-0.252 0.546,-0.299 0.507,-0.337C0.469,-0.376 0.422,-0.395 0.368,-0.395L0.246,-0.395C0.216,-0.395 0.191,-0.406 0.17,-0.427C0.149,-0.448 0.138,-0.473 0.138,-0.503C0.138,-0.533 0.149,-0.558 0.17,-0.58C0.191,-0.601 0.216,-0.611 0.246,-0.611L0.368,-0.611C0.398,-0.611 0.423,-0.601 0.444,-0.58C0.465,-0.558 0.476,-0.533 0.476,-0.503C0.476,-0.491 0.48,-0.48 0.489,-0.472C0.498,-0.463 0.508,-0.458 0.521,-0.458C0.533,-0.458 0.543,-0.463 0.552,-0.472C0.561,-0.48 0.565,-0.491 0.565,-0.503C0.565,-0.558 0.546,-0.604 0.507,-0.643C0.469,-0.681 0.422,-0.701 0.368,-0.701L0.246,-0.701C0.192,-0.701 0.145,-0.681 0.107,-0.643C0.068,-0.604 0.049,-0.558 0.049,-0.503C0.049,-0.449 0.068,-0.402 0.107,-0.364C0.145,-0.325 0.192,-0.306 0.246,-0.306L0.368,-0.306C0.398,-0.306 0.423,-0.295 0.444,-0.274C0.465,-0.253 0.476,-0.227 0.476,-0.197C0.476,-0.168 0.465,-0.142 0.444,-0.121C0.423,-0.1 0.398,-0.089 0.368,-0.089L0.246,-0.089Z" style="fill:white;fill-rule:nonzero;"/>
            </g>
            <g transform="matrix(581.72,0,0,500,2689.32,350.342)">
                <path d="M0.399,-0.611C0.471,-0.611 0.533,-0.586 0.583,-0.535C0.635,-0.484 0.66,-0.422 0.66,-0.35C0.66,-0.278 0.635,-0.217 0.583,-0.166C0.533,-0.115 0.471,-0.089 0.399,-0.089C0.327,-0.089 0.265,-0.115 0.214,-0.166C0.164,-0.217 0.138,-0.278 0.138,-0.35C0.138,-0.422 0.164,-0.484 0.214,-0.535C0.265,-0.586 0.327,-0.611 0.399,-0.611ZM0.399,-0C0.496,-0 0.579,-0.034 0.647,-0.103C0.715,-0.171 0.75,-0.253 0.75,-0.35C0.75,-0.447 0.715,-0.53 0.647,-0.598C0.579,-0.667 0.496,-0.701 0.399,-0.701C0.302,-0.701 0.22,-0.667 0.151,-0.598C0.083,-0.53 0.049,-0.447 0.049,-0.35C0.049,-0.253 0.083,-0.171 0.151,-0.103C0.22,-0.034 0.302,-0 0.399,-0Z" style="fill:white;fill-rule:nonzero;"/>
            </g>
            <g transform="matrix(581.72,0,0,500,3153.73,350.342)">
                <path d="M0.324,-0.027C0.332,-0.009 0.345,-0 0.364,-0C0.384,-0 0.397,-0.009 0.405,-0.027L0.673,-0.638C0.678,-0.65 0.678,-0.661 0.673,-0.672C0.669,-0.684 0.661,-0.692 0.65,-0.697C0.639,-0.702 0.627,-0.702 0.616,-0.698C0.604,-0.693 0.596,-0.685 0.591,-0.674L0.364,-0.156L0.138,-0.674C0.133,-0.685 0.125,-0.693 0.113,-0.698C0.102,-0.702 0.09,-0.702 0.079,-0.697C0.068,-0.692 0.06,-0.684 0.056,-0.672C0.051,-0.661 0.051,-0.65 0.056,-0.638L0.324,-0.027Z" style="fill:white;fill-rule:nonzero;"/>
            </g>
            <g transform="matrix(581.72,0,0,500,0,942.871)">
                <path d="M0.532,-0C0.54,-0 0.546,-0.003 0.551,-0.008C0.556,-0.013 0.559,-0.019 0.559,-0.027C0.559,-0.034 0.556,-0.041 0.551,-0.046C0.546,-0.051 0.54,-0.054 0.532,-0.054L0.103,-0.054L0.103,-0.671C0.103,-0.679 0.1,-0.685 0.095,-0.69C0.09,-0.696 0.083,-0.698 0.076,-0.698C0.068,-0.698 0.062,-0.696 0.057,-0.69C0.051,-0.685 0.049,-0.679 0.049,-0.671L0.049,-0.027C0.049,-0.019 0.051,-0.013 0.057,-0.008C0.062,-0.003 0.068,-0 0.076,-0L0.532,-0Z" style="fill:white;fill-rule:nonzero;"/>
            </g>
            <g transform="matrix(581.72,0,0,500,353.634,942.871)">
                <path d="M0.664,-0.012C0.67,-0.02 0.67,-0.029 0.667,-0.038L0.384,-0.682C0.38,-0.693 0.372,-0.698 0.36,-0.698C0.348,-0.698 0.34,-0.693 0.335,-0.682L0.053,-0.038C0.05,-0.031 0.05,-0.024 0.053,-0.017C0.055,-0.01 0.06,-0.005 0.067,-0.002C0.07,-0.001 0.074,-0 0.078,-0C0.089,-0 0.098,-0.005 0.103,-0.016L0.36,-0.604L0.601,-0.054L0.292,-0.054C0.285,-0.054 0.279,-0.051 0.273,-0.046C0.268,-0.041 0.266,-0.034 0.266,-0.027C0.266,-0.019 0.268,-0.013 0.273,-0.008C0.279,-0.003 0.285,-0 0.292,-0L0.642,-0C0.651,-0 0.659,-0.004 0.664,-0.012Z" style="fill:white;fill-rule:nonzero;"/>
            </g>
            <g transform="matrix(581.72,0,0,500,773.165,942.871)">
                <path d="M0.103,-0.322L0.385,-0.322C0.422,-0.322 0.453,-0.309 0.479,-0.283C0.506,-0.257 0.519,-0.225 0.519,-0.188C0.519,-0.151 0.506,-0.119 0.479,-0.093C0.453,-0.067 0.422,-0.054 0.385,-0.054L0.103,-0.054L0.103,-0.322ZM0.103,-0.645L0.331,-0.645C0.368,-0.645 0.399,-0.632 0.426,-0.605C0.452,-0.579 0.465,-0.547 0.465,-0.51C0.465,-0.473 0.452,-0.442 0.426,-0.416C0.399,-0.389 0.368,-0.376 0.331,-0.376L0.103,-0.376L0.103,-0.645ZM0.385,-0C0.437,-0 0.481,-0.018 0.518,-0.055C0.554,-0.092 0.573,-0.136 0.573,-0.188C0.573,-0.228 0.561,-0.264 0.538,-0.297C0.515,-0.328 0.486,-0.351 0.449,-0.364C0.496,-0.402 0.519,-0.451 0.519,-0.51C0.519,-0.562 0.501,-0.606 0.464,-0.643C0.427,-0.68 0.383,-0.698 0.331,-0.698L0.076,-0.698C0.068,-0.698 0.062,-0.696 0.057,-0.69C0.051,-0.685 0.049,-0.679 0.049,-0.671L0.049,-0.027C0.049,-0.019 0.051,-0.013 0.057,-0.008C0.062,-0.003 0.068,-0 0.076,-0L0.385,-0Z" style="fill:white;fill-rule:nonzero;"/>
            </g>
        </g>
        <g transform="matrix(1,0,0,1,-14059.8,5910.05)">
            <path d="M16829,1868.7L16542.1,1699.69C16527,1690.78 16517.7,1674.52 16517.7,1656.95L16517.7,1241.98C16517.7,1224.41 16527,1208.16 16542.1,1199.24L16892.8,992.629C16908.4,983.475 16927.6,983.475 16943.2,992.629L17293.9,1199.24C17309,1208.16 17318.3,1224.41 17318.3,1241.98L17318.3,1656.95C17318.3,1674.52 17309,1690.78 17293.9,1699.69L17011.2,1866.26L17011.2,2007.83L16829,2007.83L16829,1868.7Z" style="fill:none;stroke:white;stroke-width:50px;"/>
        </g>
        <g transform="matrix(1,0,0,1,-14059.8,5910.05)">
            <path d="M16829,1868.7L16542.1,1699.69C16527,1690.78 16517.7,1674.52 16517.7,1656.95L16517.7,1241.98C16517.7,1224.41 16527,1208.16 16542.1,1199.24L16892.8,992.629C16908.4,983.475 16927.6,983.475 16943.2,992.629L17293.9,1199.24C17309,1208.16 17318.3,1224.41 17318.3,1241.98L17318.3,1656.95C17318.3,1674.52 17309,1690.78 17293.9,1699.69L17011.2,1866.26L17011.2,2007.83L16829,2007.83L16829,1868.7Z" style="fill:none;stroke:white;stroke-width:41.67px;"/>
        </g>
        <g transform="matrix(1,0,0,3.62058,-14328.3,-50846.1)">
            <path d="M17398.6,16131C17404.7,16128.8 17405.5,16126.4 17400.9,16124L17214.7,16022.7C17209.3,16019.7 17199.8,16018.2 17186.2,16018.2C17172.8,16018.2 17163.4,16019.7 17157.9,16022.7L16971.7,16124C16968.3,16125.9 16968.2,16127.8 16971.4,16129.7C16974.3,16131.6 16979.8,16132.9 16987.7,16133.7C16991.8,16134.1 16996,16134.4 17000.3,16134.4C17013.6,16134.4 17023,16132.9 17028.5,16129.9L17186.2,16044.1L17325.2,16119.6L17142,16119.6C17133.4,16119.6 17126,16120.3 17119.9,16121.7C17114,16123.2 17111,16125 17111,16127C17111,16129 17114,16130.7 17119.9,16132.2C17126,16133.6 17133.4,16134.4 17142,16134.4L17372.4,16134.4C17383.7,16134.4 17392.4,16133.3 17398.6,16131Z" style="fill:white;fill-rule:nonzero;"/>
        </g>
    </g>
</svg>
